<?xml version="1.0" ?>

<!-- Uploaded to: SVG Repo, www.svgrepo.com, Generator: SVG Repo Mixer Tools -->
<svg width="800px" height="800px" viewBox="0 0 281.25 281.25" id="svg2" version="1.1" xml:space="preserve" xmlns="http://www.w3.org/2000/svg" xmlns:cc="http://creativecommons.org/ns#" xmlns:dc="http://purl.org/dc/elements/1.1/" xmlns:rdf="http://www.w3.org/1999/02/22-rdf-syntax-ns#" xmlns:svg="http://www.w3.org/2000/svg">

<defs id="defs4"/>

<g id="layer1" transform="translate(6984.8564,-3994.3706)">

<g id="g28905" transform="translate(-2256.0117,-363.87073)">

<path d="m -4588.2188,4387.1665 c -61.635,0 -111.7017,50.065 -111.7017,111.6999 0,61.6348 50.0667,111.6998 111.7017,111.6998 61.6347,0 111.6997,-50.065 111.6998,-111.6998 -1e-4,-61.6349 -50.0651,-111.6999 -111.6998,-111.6999 z m 0,9.375 c 56.5681,0 102.3247,45.7566 102.3248,102.3249 -1e-4,56.5682 -45.7567,102.3248 -102.3248,102.3248 -56.5684,0 -102.3267,-45.7566 -102.3267,-102.3248 0,-56.5683 45.7583,-102.3249 102.3267,-102.3249 z" id="path6406" style="color:#000000;fill:#333333;fill-opacity:1;stroke-linecap:round;stroke-linejoin:round;-inkscape-stroke:none"/>

<path d="m -4588.2207,4435.8872 a 4.6875,4.6875 0 0 0 -4.6875,4.6875 v 25.4444 a 4.6875,4.6875 0 0 0 4.6875,4.6875 4.6875,4.6875 0 0 0 4.6875,-4.6875 v -25.4444 a 4.6875,4.6875 0 0 0 -4.6875,-4.6875 z m -41.4733,17.1772 a 4.6875,4.6875 0 0 0 -3.3143,1.3732 4.6875,4.6875 0 0 0 0,6.6285 l 17.992,17.9937 a 4.6875,4.6875 0 0 0 6.6302,0 4.6875,4.6875 0 0 0 0,-6.6284 l -17.9919,-17.9938 a 4.6875,4.6875 0 0 0 -3.316,-1.3732 z m 82.9486,0 a 4.6875,4.6875 0 0 0 -3.3142,1.3732 l -17.9938,17.9938 a 4.6875,4.6875 0 0 0 0,6.6284 4.6875,4.6875 0 0 0 6.6302,0 l 17.992,-17.9937 a 4.6875,4.6875 0 0 0 0,-6.6285 4.6875,4.6875 0 0 0 -3.3142,-1.3732 z m -100.1276,41.4752 a 4.6875,4.6875 0 0 0 -4.6875,4.6875 4.6875,4.6875 0 0 0 4.6875,4.6875 h 25.4462 a 4.6875,4.6875 0 0 0 4.6875,-4.6875 4.6875,4.6875 0 0 0 -4.6875,-4.6875 z m 91.8622,0 a 4.6875,4.6875 0 0 0 -4.6875,4.6875 4.6875,4.6875 0 0 0 4.6875,4.6875 h 25.4443 a 4.6875,4.6875 0 0 0 4.6875,-4.6875 4.6875,4.6875 0 0 0 -4.6875,-4.6875 z m -56.6913,23.4796 a 4.6875,4.6875 0 0 0 -3.3142,1.3733 l -17.992,17.9937 a 4.6875,4.6875 0 0 0 0,6.6303 4.6875,4.6875 0 0 0 6.6303,0 l 17.9919,-17.9956 a 4.6875,4.6875 0 0 0 0,-6.6284 4.6875,4.6875 0 0 0 -3.316,-1.3733 z m 46.9629,0 a 4.6875,4.6875 0 0 0 -3.3142,1.3733 4.6875,4.6875 0 0 0 0,6.6302 l 17.9938,17.9938 a 4.6875,4.6875 0 0 0 6.6284,0 4.6875,4.6875 0 0 0 0,-6.6303 l -17.992,-17.9937 a 4.6875,4.6875 0 0 0 -3.316,-1.3733 z m -23.4815,9.7265 a 4.6875,4.6875 0 0 0 -4.6875,4.6875 v 25.448 a 4.6875,4.6875 0 0 0 4.6875,4.6875 4.6875,4.6875 0 0 0 4.6875,-4.6875 v -25.448 a 4.6875,4.6875 0 0 0 -4.6875,-4.6875 z" id="path6408" style="color:#000000;fill:#2aff2a;fill-opacity:1;stroke-linecap:round;stroke-linejoin:round;-inkscape-stroke:none"/>

</g>

</g>

</svg>