<?xml version="1.0" encoding="iso-8859-1"?>
<!-- Uploaded to: SVG Repo, www.svgrepo.com, Generator: SVG Repo Mixer Tools -->
<svg version="1.1" id="Layer_1" xmlns="http://www.w3.org/2000/svg" xmlns:xlink="http://www.w3.org/1999/xlink" 
	 viewBox="0 0 512.001 512.001" xml:space="preserve">
<path style="fill:#FDB51E;" d="M252.198,347.691c16.116-2.52,29.967,11.332,27.448,27.448c-1.585,10.136-9.706,18.258-19.843,19.843
	c-16.116,2.52-29.967-11.332-27.448-27.448C233.94,357.397,242.061,349.276,252.198,347.691z"/>
<path style="fill:#FFD311;" d="M333.815,311.479v143.657H178.186V311.479H333.815z M256.001,395.279
	c13.169,0,23.943-10.774,23.943-23.943c0-13.169-10.774-23.943-23.943-23.943c-13.169,0-23.943,10.774-23.943,23.943
	C232.058,384.504,242.832,395.279,256.001,395.279z"/>
<path style="fill:#445764;" d="M256.001,78.037c16.521,0,29.929,13.408,29.929,29.929s-13.408,29.929-29.929,29.929
	s-29.929-13.408-29.929-29.929S239.48,78.037,256.001,78.037z"/>
<path style="fill:#E7ECED;" d="M256.001,137.894c16.521,0,29.929-13.408,29.929-29.929s-13.408-29.929-29.929-29.929
	s-29.929,13.408-29.929,29.929S239.48,137.894,256.001,137.894z M34.529,215.708L256.001,12.194l221.471,203.514h-35.914H70.443
	H34.529z"/>
<path style="fill:#445764;" d="M70.443,215.708v287.314h371.114V215.708H70.443z M333.815,455.136H178.186V311.479h155.629V455.136z
	"/>
<path style="fill:#B2B6B8;" d="M226.072,107.966c0-16.474,13.335-29.839,29.792-29.914V12.319L34.529,215.708h35.914h185.421V137.88
	C239.407,137.803,226.072,124.439,226.072,107.966z"/>
<path d="M450.536,224.687h49.976L256.001,0L11.489,224.687h49.976v269.357H22.558v17.957h466.886v-17.957h-38.907V224.687z
	 M57.569,206.73l26.056-23.943h262.161V164.83h-242.62L256.001,24.387l198.431,182.342H57.569V206.73z M79.422,266.587h62.85V248.63
	h-62.85v-23.943h353.157v23.943h-62.85v17.957h62.85v227.457H79.422L79.422,266.587L79.422,266.587z"/>
<path d="M256.001,69.058c-21.453,0-38.907,17.454-38.907,38.907s17.454,38.907,38.907,38.907s38.907-17.454,38.907-38.907
	S277.453,69.058,256.001,69.058z M256.001,128.916c-11.551,0-20.95-9.399-20.95-20.95s9.399-20.95,20.95-20.95
	s20.95,9.399,20.95,20.95S267.552,128.916,256.001,128.916z"/>
<path d="M247.022,403.003v28.19h17.957v-28.19c13.801-3.919,23.943-16.626,23.943-31.667c0-18.153-14.768-32.921-32.921-32.921
	s-32.921,14.768-32.921,32.921C223.079,386.377,233.22,399.084,247.022,403.003z M256.001,356.371
	c8.252,0,14.964,6.712,14.964,14.964c0,8.252-6.712,14.964-14.964,14.964c-8.252,0-14.964-6.712-14.964-14.964
	C241.036,363.085,247.749,356.371,256.001,356.371z"/>
<g>
	<rect x="160.226" y="248.635" style="fill:#FFFFFF;" width="23.943" height="17.957"/>
	<rect x="94.383" y="458.135" style="fill:#FFFFFF;" width="23.943" height="17.957"/>
</g>
<rect x="118.326" y="434.192" width="23.943" height="17.957"/>
<rect x="393.668" y="458.135" style="fill:#FFFFFF;" width="23.943" height="17.957"/>
<rect x="369.726" y="434.192" width="23.943" height="17.957"/>
<rect x="327.826" y="248.635" style="fill:#FFFFFF;" width="23.943" height="17.957"/>
<path d="M408.636,410.243v-68.836h-17.957v50.879h-47.886V302.5h-41.9v-44.893c0-7.255-5.245-14.964-14.964-14.964h-59.857
	c-9.72,0-14.964,7.71-14.964,14.964V302.5h-41.9v35.914h-65.843v68.836h17.957v-50.879h47.886v107.743h173.586v-53.871H408.636z
	 M229.065,260.601h53.871v41.9h-53.871V260.601z M324.836,446.157H187.165v-125.7h137.671V446.157z"/>
</svg>